<svg data-name="Layer 1" xmlns="http://www.w3.org/2000/svg" viewBox="0 0 488.133 249.892"><title>Halifax_Chevron_Only_Vector_Logo_Rev</title><path fill="#fff" d="M0 162.542h26.855v-28.418H54.38v28.418h26.848V86.658H54.38v27.235H26.855V86.658H0v75.884m177.596-75.878h26.408v58.665h25.99v17.213h-52.398V86.664m56.628 0h26.738v75.878h-26.738zm37.06 0h53.091v15.885h-26.693v13.932h26.502v16.293h-26.502v29.768h-26.398V86.664m215.409 162.898H295.321l-7.571-6.779h191.371l7.572 6.779m-15.947-13.558H279.38l-7.571-6.774h191.366l7.571 6.774m-16.214-13.024H263.166l-7.583-6.779H446.96l7.572 6.779m-17.806-14.355H245.355l-7.572-6.774h191.372l7.571 6.774m-16.476-14.084H228.879l-7.572-6.773h191.372l7.571 6.773m-16.477-13.553H212.401l-7.577-6.779h191.372l7.577 6.779m-172.568 27.709H54.586l7.705-6.779h161.343l7.571 6.779m-16.482-14.089H70.795l7.711-6.779h128.645l7.572 6.779m-16.477-13.558H87.143l7.711-6.774h95.821l7.571 6.774m29.5 41.998H36.508l7.711-6.774h190.306l-6.779 6.774m-16.477 13.291H20.037l7.705-6.775h190.307l-6.78 6.775m-15.953 13.553H4.079l7.711-6.78h190.306l-6.78 6.78M10.333 7.114h191.372L194.123.329H2.756l7.577 6.785m15.942 13.553h191.371l-7.571-6.779H18.703l7.572 6.779M42.489 33.69h191.378l-7.578-6.779H34.918l7.571 6.779M60.3 48.041h191.372l-7.583-6.773H52.723l7.577 6.773M76.776 62.13h191.372l-7.572-6.774H69.205l7.571 6.774m16.483 13.553h191.36l-7.577-6.774H85.682l7.577 6.774M265.821 47.98h161.331l7.711-6.779H258.244l7.577 6.779m16.478 14.083h128.644l7.711-6.779H274.726l7.573 6.779m16.487 13.559h95.815l7.705-6.78H291.209l7.577 6.78m-43.861-41.999H445.23l7.711-6.773H261.704l-6.779 6.773m16.481-13.285h190.301l7.717-6.779H278.175l-6.769 6.779m15.947-13.559h190.312l7.7-6.779H294.127l-6.774 6.779m67.129 130.026l6.467-16.5 5.278 16.5h-11.745m133.654-50.141h-27.969l-16.962 19.177-15.847-19.177H395.9l29.784 38.02-23.881 29.957-28.629-67.977h-23.3l-34.984 75.878h27.7l5.4-11.433h24.5l5.178 11.433h47.623l14.992-18.7 14.842 18.7h32.652l-29.741-37.663zm-365.155 50.141l6.467-16.5 5.278 16.5h-11.745m18.692-50.145h-23.3l-34.979 75.878h27.7l5.4-11.433h24.5l5.167 11.433h27.475z"/></svg>